<svg xmlns="http://www.w3.org/2000/svg" viewBox="0 0 2913.18 817.98"><defs><style>.cls-1{fill:#e91d3d;}.cls-2{fill:#fff;}</style></defs><g id="Layer_2" data-name="Layer 2"><g id="Layer_1-2" data-name="Layer 1"><path class="cls-1" d="M796,569.16H267.54V274.45h-81.4V609.88a40.69,40.69,0,0,0,40.71,40.7h463l-95.61,86H81.39V248.8H186.14v0h81.4v0H609.85a40.67,40.67,0,0,0,27.22-10.44L823.23,71A40.7,40.7,0,0,0,796,0H226.85a40.7,40.7,0,0,0-40.71,40.7v101h81.4V81.41H689.87l-95.61,86H267.54v0h-81.4v0H40.69A40.7,40.7,0,0,0,0,208.1V777.27A40.7,40.7,0,0,0,40.69,818H609.85a40.71,40.71,0,0,0,27.22-10.43L823.23,640.13a40.7,40.7,0,0,0-27.21-71Z"/><path class="cls-2" d="M1141.23,242.79c67.06,0,139.67,36.54,152.16,123H1212c-11.56-32.84-36.07-47.64-70.75-47.64-48.56,0-80.46,36.55-80.46,90.17,0,47.65,31.43,89.27,80.46,89.73,35.15,0,63.36-17.59,72.15-52.26h81.4c-12,91.57-84.65,127.64-153.55,127.64-82.32.47-165.56-55-166-165.11C975.67,298.29,1058.91,242.79,1141.23,242.79Z"/><path class="cls-2" d="M1319.7,408.8c0-223.81,332-223.81,332,0C1651.75,633.12,1319.7,633.12,1319.7,408.8Zm247.42,0c0-116.52-162.34-116.52-162.34,0C1404.78,526.27,1567.12,526.27,1567.12,408.8Z"/><path class="cls-2" d="M1972.19,245.58h29.6V570.21h-84.63V425.92l-68.91,72.15H1839l-68.44-72.15V570.21h-84.62V245.58h30.51l126.72,140.57Z"/><path class="cls-2" d="M2178.41,570.21h-122.1V246.5h122.1C2389.28,247.42,2389.28,569.27,2178.41,570.21Zm-39.32-75.37h39.32c103.13,0,103.13-173,0-173h-39.32Z"/><path class="cls-2" d="M2573.77,320.49H2454v45.78h110.07v73.52H2454v56.89h123.93v73.53H2371.66V246.5h202.11Z"/><path class="cls-2" d="M2762,468.47l-62,101.74h-86.47V557.72L2718,398.64,2624.61,259V246.5h84.63L2762,330.68h2.29l54.12-84.18h83.25V259L2808.2,398.64l105,159.08v12.49h-86.95l-61.51-101.74Z"/></g></g></svg>